<svg width="203" height="245" viewBox="0 0 203 245" fill="none" xmlns="http://www.w3.org/2000/svg">
<g clip-path="url(#clip0_11_348)">
<path d="M58.0213 17.929C64.5543 17.69 71.1171 17.7497 77.68 17.8992C79.9471 17.9589 81.0509 17.3613 82.0949 15.0903C86.152 6.21541 92.9534 0.448242 102.947 0.328715C129.496 1.60973e-05 156.076 -0.119511 182.655 0.149425C196.199 0.298833 204.85 10.9965 202.672 23.6364C201.15 32.4217 193.961 38.5474 184.833 38.5773C163.146 38.637 141.459 38.5773 119.772 38.5773C118.638 38.5773 118.161 38.5773 116.639 38.5773C116.102 38.5773 115.685 39.0255 115.714 39.5335C116.013 46.4362 115.476 52.9803 115.953 59.4945C116.132 61.8551 115.148 62.8412 113.03 62.901C109.927 63.0205 106.795 62.9607 103.693 63.0205C100.53 63.0803 99.3373 63.3791 99.3671 64.9927C99.3671 65.0823 99.3671 65.172 99.3671 65.2616C99.3671 65.4409 99.3969 65.6202 99.4268 65.7995C99.5163 66.2477 99.6356 66.7856 99.8444 67.4131C99.9637 67.8016 100.322 68.0705 100.709 68.0705C123.262 68.0705 145.695 68.0705 168.128 68.0705C175.854 68.0705 182.118 70.969 185.609 78.1108C189.158 85.3421 188.771 92.5735 184.296 99.3567C180.537 105.094 174.899 107.305 168.277 107.335C152.049 107.395 135.821 107.395 119.563 107.395C118.489 107.395 117.385 107.395 116.013 107.395C115.506 107.395 115.088 107.813 115.088 108.321C115.088 109.487 115.088 110.532 115.088 111.548C115.088 126.908 115.088 142.297 115.058 157.656C115.058 168.413 110.703 174.21 101.634 175.675C93.0429 177.079 84.0041 171.401 81.4387 162.377C80.3946 158.702 80.3349 154.787 79.8874 150.664C79.8278 150.126 80.2454 149.648 80.8122 149.648H87.375C87.8523 149.648 88.27 150.036 88.2998 150.514C88.5683 155.893 87.4049 161.75 92.8639 165.634C93.4605 166.053 94.266 165.664 94.3257 164.947C94.3853 164.051 94.445 163.274 94.4151 162.527C94.2362 154.847 93.9975 147.197 93.8484 139.518C93.8484 138.442 94.2958 137.366 94.4151 136.29C94.8626 132.645 94.4748 132.227 90.8354 132.227C80.2752 132.227 69.7151 132.256 59.1549 132.197C57.1264 132.197 53.9046 133.153 53.8748 129.896C53.845 126.609 57.0667 127.565 59.0952 127.565C69.4466 127.505 79.7681 127.565 90.1195 127.565C91.1636 127.565 92.2375 127.565 93.4606 127.565C93.9677 127.565 94.3853 127.147 94.3853 126.639C94.3853 122.844 94.3853 119.377 94.3853 115.911C94.3853 99.3268 94.2958 82.7125 94.3853 66.1282C94.3853 63.5584 93.5202 62.9607 91.1337 62.9607C73.8914 62.9607 56.6789 62.8412 39.4366 62.7516C38.8698 62.7516 38.3329 62.7815 37.7661 62.7516C35.8569 62.632 33.1721 63.1998 33.2616 60.2415C33.3212 57.6119 35.827 57.9705 37.6766 57.9705C53.3677 57.9107 69.029 57.8809 84.7201 57.851C87.5242 57.851 90.2985 57.851 93.2517 57.851C93.7589 57.851 94.1765 57.4326 94.1765 56.9246V53.2791C94.1765 52.7711 93.7589 52.3527 93.2517 52.3527C91.5514 52.3527 89.9107 52.3527 88.2401 52.3527C78.2467 52.3527 68.2235 52.3826 58.2301 52.4125C57.2159 52.4125 56.1121 52.6516 55.2769 52.293C54.2924 51.8746 54.5311 48.0199 55.4857 47.9601C60.8254 47.751 66.1652 47.8705 71.5049 47.8107C74.2494 47.8107 77.9783 48.6474 79.4996 47.2131C80.9614 45.8684 80.1261 42.0436 80.3051 39.3243C80.3051 38.9956 80.3647 38.6669 80.4244 38.2785C80.4841 37.8302 80.8719 37.5015 81.3193 37.5015H87.4049C87.912 37.5015 88.3296 37.9199 88.3296 38.4279V46.4959C88.3296 47.0039 88.7473 47.4223 89.2544 47.4223H93.4307C93.9378 47.4223 94.3555 47.0039 94.3555 46.4959C94.3555 40.9379 94.2958 35.4696 94.3555 30.0311C94.445 23.2779 97.4877 19.0048 103.245 17.5406C104.617 17.182 106.109 17.2119 107.541 17.2119C133.225 17.2119 158.91 17.2119 184.594 17.1521C186.832 17.1521 190.143 18.1083 190.083 14.2536C190.024 10.7574 186.891 11.5344 184.684 11.4746C180.627 11.3849 176.57 11.4447 172.96 11.4447C172.572 11.4447 172.214 11.7136 172.095 12.0722C171.618 13.5364 171.319 14.6719 170.783 15.658C170.633 15.9568 168.933 15.8971 168.754 15.5684C168.277 14.642 168.068 13.5962 167.71 12.2216C167.62 11.8332 167.292 11.5642 166.875 11.5344C166.129 11.4746 165.144 11.4148 164.16 11.4148C144.382 11.3551 124.574 11.3252 104.796 11.2953C93.6694 11.2953 88.4489 16.4648 88.4191 27.6107C88.4191 28.6566 88.4191 29.7024 88.4191 30.8379C88.4191 31.3459 88.0015 31.7643 87.4943 31.7643H81.1702C80.663 31.7643 80.2454 31.3459 80.2454 30.8379V23.4571C80.2454 22.9492 79.8278 22.5308 79.3207 22.5308C72.907 22.5308 64.0472 22.5009 58.26 22.5906M116.013 79.1566C115.506 79.1566 115.088 79.575 115.088 80.083C115.088 85.2824 115.118 89.9738 115.088 94.6951C115.088 96.6972 116.341 96.6972 117.743 96.6972C125.976 96.6972 134.18 96.6972 142.413 96.6075C143.398 96.6075 144.621 95.8904 145.247 95.1134C146.828 93.1413 147.932 93.0815 149.185 95.3824C149.513 95.98 150.468 96.5777 151.154 96.6075C157.806 96.6972 164.488 96.6972 171.14 96.6075C173.229 96.5777 175.287 96.0099 175.138 93.2309C174.989 90.4818 172.901 90.6013 170.991 90.6013C161.207 90.6013 151.452 90.6013 141.667 90.6013C136.119 90.6013 130.57 90.6611 124.992 90.6013C122.068 90.5714 120.338 88.5694 121.681 86.8362C122.397 85.9398 124.097 85.4019 125.38 85.4019C137.491 85.3123 149.603 85.372 161.714 85.372C165.144 85.372 168.635 85.5812 172.035 85.2226C173.169 85.1031 175.019 83.5791 175.019 82.6827C175.019 81.577 173.616 80.2025 172.483 79.4554C171.677 78.9176 170.335 79.1865 169.231 79.1865C153.331 79.1865 137.461 79.1865 121.561 79.2164C119.831 79.2164 118.101 79.2164 116.013 79.2164V79.1566ZM163.355 27.1625C163.355 27.1625 163.414 26.9533 163.444 26.8637C163.981 24.7719 166.964 24.8317 167.412 26.9533C167.412 26.9533 167.412 26.9832 167.412 27.0131C167.501 27.4314 167.859 27.7601 168.307 27.7601C174.332 27.7601 180.507 27.7601 186.712 27.7601C188.532 27.7601 190.173 27.282 190.173 25.0708C190.173 22.6205 188.413 22.2918 186.474 22.2918C160.014 22.2918 133.583 22.2918 107.123 22.2918C102.141 22.2918 99.5461 24.9811 99.4864 30.0012C99.3969 38.3382 99.5461 46.7051 99.4864 55.0421C99.4864 57.3131 100.352 57.851 102.44 57.851C104.647 57.851 105.632 57.3131 105.572 54.8628C105.423 47.751 105.453 40.6092 105.512 33.4974C105.542 29.2841 106.974 27.9394 111.21 27.9095C117.653 27.8498 124.097 27.8796 130.54 27.8796C141.28 27.8796 152.049 27.8796 162.49 27.8796C162.907 27.8796 163.265 27.6107 163.384 27.1924L163.355 27.1625ZM99.6952 74.0767V167.009C99.6952 167.606 100.262 168.055 100.859 167.905C103.245 167.278 104.617 165.784 105.124 163.513C105.542 161.69 105.602 159.777 105.602 157.895C105.602 131.42 105.572 104.945 105.482 78.4693C105.482 73.2102 106.467 73.509 100.68 73.1504C100.143 73.1205 99.6952 73.5389 99.6952 74.0767Z" fill="white"/>
<path d="M88.3893 98.6992C88.3893 106.379 88.4489 113.939 88.2998 121.499C88.2998 122.156 87.0767 123.382 86.3906 123.382C80.0664 123.471 73.7124 123.501 67.3882 123.232C66.374 123.202 66.4038 118.571 67.4777 118.481C71.5646 118.212 75.6514 118.361 80.0664 118.361V98.6992H88.3893Z" fill="white"/>
<path d="M88.2102 82.354H80.2454C80.2454 79.9037 80.1559 77.6028 80.2454 75.3019C80.3647 73.1205 79.2311 72.7022 77.3816 72.7321C74.0405 72.8217 70.6994 72.9113 67.3882 72.6424C66.4038 72.5528 66.4038 68.3394 67.3584 68.3096C74.2195 68.1303 81.0806 68.2199 88.1804 68.2199V82.3838L88.2102 82.354Z" fill="white"/>
<path d="M73.9212 37.2625C74.5178 42.3723 74.3985 42.432 70.6099 42.4619C65.658 42.4918 60.7061 42.7906 55.7541 42.6113C54.6802 42.5814 54.3819 37.4119 55.3365 37.382C61.4817 37.143 67.6567 37.2625 73.951 37.2625H73.9212Z" fill="white"/>
<path d="M88.2699 88.0613V92.454H80.5437V88.0613H88.2699Z" fill="white"/>
<path d="M93.8782 139.398V132.555L95.0714 132.705L94.8626 138.89" fill="white"/>
<path d="M53.487 23.3675C55.184 23.3675 56.5596 21.9895 56.5596 20.2897C56.5596 18.5898 55.184 17.2119 53.487 17.2119C51.7901 17.2119 50.4144 18.5898 50.4144 20.2897C50.4144 21.9895 51.7901 23.3675 53.487 23.3675Z" fill="white"/>
<path d="M26.4005 63.4687C28.0974 63.4687 29.4731 62.0908 29.4731 60.3909C29.4731 58.6911 28.0974 57.3131 26.4005 57.3131C24.7035 57.3131 23.3279 58.6911 23.3279 60.3909C23.3279 62.0908 24.7035 63.4687 26.4005 63.4687Z" fill="white"/>
<path d="M19.1515 63.4687C20.8484 63.4687 22.224 62.0908 22.224 60.3909C22.224 58.6911 20.8484 57.3131 19.1515 57.3131C17.4545 57.3131 16.0789 58.6911 16.0789 60.3909C16.0789 62.0908 17.4545 63.4687 19.1515 63.4687Z" fill="white"/>
<path d="M48.4157 42.5516C50.1127 42.5516 51.4883 41.1736 51.4883 39.4737C51.4883 37.7739 50.1127 36.3959 48.4157 36.3959C46.7188 36.3959 45.3431 37.7739 45.3431 39.4737C45.3431 41.1736 46.7188 42.5516 48.4157 42.5516Z" fill="white"/>
<path d="M74.3687 93.2309C76.0657 93.2309 77.4413 91.8529 77.4413 90.1531C77.4413 88.4532 76.0657 87.0753 74.3687 87.0753C72.6718 87.0753 71.2961 88.4532 71.2961 90.1531C71.2961 91.8529 72.6718 93.2309 74.3687 93.2309Z" fill="white"/>
<path d="M61.3922 123.65C63.0891 123.65 64.4648 122.272 64.4648 120.573C64.4648 118.873 63.0891 117.495 61.3922 117.495C59.6952 117.495 58.3196 118.873 58.3196 120.573C58.3196 122.272 59.6952 123.65 61.3922 123.65Z" fill="white"/>
<path d="M33.6792 143.492C35.3761 143.492 36.7518 142.114 36.7518 140.414C36.7518 138.714 35.3761 137.336 33.6792 137.336C31.9822 137.336 30.6066 138.714 30.6066 140.414C30.6066 142.114 31.9822 143.492 33.6792 143.492Z" fill="white"/>
<path d="M3.07259 93.2309C4.76954 93.2309 6.14519 91.8529 6.14519 90.1531C6.14519 88.4532 4.76954 87.0753 3.07259 87.0753C1.37565 87.0753 0 88.4532 0 90.1531C0 91.8529 1.37565 93.2309 3.07259 93.2309Z" fill="white"/>
<path d="M84.0638 148.124C85.7608 148.124 87.1364 146.746 87.1364 145.046C87.1364 143.346 85.7608 141.968 84.0638 141.968C82.3669 141.968 80.9912 143.346 80.9912 145.046C80.9912 146.746 82.3669 148.124 84.0638 148.124Z" fill="white"/>
<path d="M76.3674 148.124C78.0643 148.124 79.44 146.746 79.44 145.046C79.44 143.346 78.0643 141.968 76.3674 141.968C74.6704 141.968 73.2948 143.346 73.2948 145.046C73.2948 146.746 74.6704 148.124 76.3674 148.124Z" fill="white"/>
<path d="M61.3922 73.6285C63.0891 73.6285 64.4648 72.2505 64.4648 70.5507C64.4648 68.8509 63.0891 67.4729 61.3922 67.4729C59.6952 67.4729 58.3196 68.8509 58.3196 70.5507C58.3196 72.2505 59.6952 73.6285 61.3922 73.6285Z" fill="white"/>
<path d="M66.911 93.2309C68.6079 93.2309 69.9836 91.8529 69.9836 90.1531C69.9836 88.4532 68.6079 87.0753 66.911 87.0753C65.214 87.0753 63.8384 88.4532 63.8384 90.1531C63.8384 91.8529 65.214 93.2309 66.911 93.2309Z" fill="white"/>
<path d="M73.8615 149.677H29.3835C27.8678 149.677 26.639 150.908 26.639 152.426C26.639 153.945 27.8678 155.176 29.3835 155.176H73.8615C75.3772 155.176 76.606 153.945 76.606 152.426C76.606 150.908 75.3772 149.677 73.8615 149.677Z" fill="white"/>
<path d="M61.0641 137.545H41.4652C39.9494 137.545 38.7207 138.776 38.7207 140.295C38.7207 141.813 39.9494 143.044 41.4652 143.044H61.0641C62.5798 143.044 63.8086 141.813 63.8086 140.295C63.8086 138.776 62.5798 137.545 61.0641 137.545Z" fill="white"/>
<path d="M46.4469 109.995C48.1438 109.995 49.5195 108.617 49.5195 106.917C49.5195 105.217 48.1438 103.839 46.4469 103.839C44.7499 103.839 43.3743 105.217 43.3743 106.917C43.3743 108.617 44.7499 109.995 46.4469 109.995Z" fill="white"/>
<path d="M73.8317 104.048H54.2327C52.717 104.048 51.4883 105.279 51.4883 106.797C51.4883 108.316 52.717 109.546 54.2327 109.546H73.8317C75.3474 109.546 76.5762 108.316 76.5762 106.797C76.5762 105.279 75.3474 104.048 73.8317 104.048Z" fill="white"/>
<path d="M56.47 87.0753H11.992C10.4763 87.0753 9.24756 88.3061 9.24756 89.8244C9.24756 91.3427 10.4763 92.5735 11.992 92.5735H56.47C57.9858 92.5735 59.2145 91.3427 59.2145 89.8244C59.2145 88.3061 57.9858 87.0753 56.47 87.0753Z" fill="white"/>
<path d="M8.32274 205.616V220.377H16.1683C17.1825 220.377 18.0178 220.706 18.6741 221.393C19.3304 222.081 19.6585 222.917 19.6585 223.874C19.6585 224.83 19.3304 225.667 18.6741 226.354C18.0178 227.041 17.1825 227.37 16.1683 227.37H8.32274V240.846C8.32274 241.832 7.9946 242.669 7.33832 243.327C6.68203 243.984 5.84677 244.343 4.83251 244.343C3.81826 244.343 3.04265 244.014 2.35654 243.327C1.67043 242.639 1.34229 241.803 1.34229 240.846V202.03C1.34229 201.044 1.67043 200.237 2.35654 199.55C3.04265 198.863 3.87792 198.534 4.83251 198.534H19.5094C20.4938 198.534 21.2992 198.863 21.9853 199.55C22.6715 200.237 22.9996 201.074 22.9996 202.03C22.9996 202.986 22.6715 203.883 21.9853 204.54C21.2992 205.198 20.464 205.526 19.5094 205.526H8.32274V205.616ZM5.3993 223.306V202.687H19.5094C19.8972 202.687 20.106 202.478 20.106 202.09C20.106 201.701 19.8972 201.492 19.5094 201.492H4.80268C4.41488 201.492 4.20606 201.701 4.20606 202.09V240.906C4.20606 241.295 4.41488 241.504 4.80268 241.504C5.19048 241.504 5.3993 241.295 5.3993 240.906V224.501H16.1683C16.5561 224.501 16.7649 224.322 16.7649 223.903C16.7649 223.485 16.5561 223.306 16.1683 223.306H5.3993Z" fill="white"/>
<path d="M33.0526 198.653C34.0669 198.653 34.9021 198.982 35.5584 199.669C36.2147 200.357 36.5428 201.193 36.5428 202.15V240.966C36.5428 241.952 36.2147 242.759 35.5584 243.446C34.9021 244.133 34.0669 244.462 33.0526 244.462C32.0384 244.462 31.2627 244.133 30.5766 243.446C29.8905 242.759 29.5624 241.922 29.5624 240.966V202.15C29.5624 201.163 29.8905 200.357 30.5766 199.669C31.2627 198.982 32.098 198.653 33.0526 198.653ZM33.6492 202.179C33.6492 201.791 33.4404 201.582 33.0526 201.582C32.6648 201.582 32.456 201.791 32.456 202.179V240.996C32.456 241.384 32.6648 241.593 33.0526 241.593C33.4404 241.593 33.6492 241.384 33.6492 240.996V202.179Z" fill="white"/>
<path d="M63.7189 240.787C63.8979 241.773 63.7189 242.639 63.2118 243.446C62.7047 244.253 61.9291 244.731 60.9446 244.94C60.7955 244.97 60.5867 245 60.2884 245C59.4829 245 58.7372 244.731 58.0809 244.223C57.4246 243.685 57.007 243.028 56.828 242.191L55.6049 236.215H49.3404L48.1173 242.191C47.9682 242.998 47.5505 243.685 46.9241 244.223C46.2678 244.761 45.5518 245 44.7166 245C44.4183 245 44.1796 245 44.0006 244.94C43.0162 244.731 42.2704 244.253 41.7335 243.446C41.1965 242.639 41.0474 241.743 41.2264 240.787L49.0122 202.03V201.851V201.791C49.0122 201.791 49.0122 201.791 49.0122 201.731V201.612C49.0122 201.612 49.0719 201.522 49.0719 201.492C49.0719 201.462 49.0719 201.433 49.1017 201.433C49.1017 201.433 49.1017 201.433 49.1017 201.373V201.313C49.2211 201.014 49.4 200.715 49.6387 200.506V200.446H49.6984C49.6984 200.446 49.6984 200.417 49.758 200.417V200.357L49.8177 200.297L49.8773 200.237L49.937 200.177L49.9967 200.118L50.0563 200.058L50.1757 199.998C50.4143 199.759 50.6828 199.58 50.9811 199.46H51.0408C51.0408 199.46 51.1302 199.401 51.1601 199.401C51.3689 199.311 51.518 199.281 51.697 199.251C51.8462 199.251 52.0252 199.191 52.234 199.161H52.5323C52.7411 199.191 52.8903 199.221 53.0693 199.251C53.2184 199.251 53.3974 199.311 53.6062 199.401C53.636 199.401 53.6957 199.401 53.7255 199.46H53.7852C54.0835 199.58 54.3818 199.759 54.6205 199.998C54.6503 199.998 54.71 199.998 54.7398 200.058L54.7995 200.118L54.8591 200.177L54.9188 200.237L54.9784 200.297L55.0381 200.357L55.0978 200.417L55.1574 200.476V200.536C55.3961 200.775 55.5751 201.044 55.6944 201.343V201.403C55.6944 201.403 55.6944 201.462 55.7242 201.462C55.7242 201.462 55.7242 201.462 55.7242 201.522C55.8137 201.761 55.8435 201.941 55.8435 202.06L63.6294 240.817L63.7189 240.787ZM60.4375 242.072C60.5867 242.042 60.706 241.952 60.8253 241.803C60.9148 241.653 60.9446 241.534 60.8253 241.354L53.0394 202.538V202.419H52.9798V202.359C52.9798 202.359 52.9798 202.299 52.9201 202.299V202.239H52.8604V202.18H52.8008L52.7411 202.12H52.6815C52.6815 202.12 52.6218 202.12 52.592 202.09C52.592 202.09 52.5323 202.09 52.5025 202.09H52.4428C52.4428 202.09 52.3235 202.09 52.3235 202.15H52.2042C52.2042 202.15 52.2042 202.209 52.1445 202.209H52.0848V202.269H52.0252V202.329C52.0252 202.329 51.9655 202.329 51.9655 202.389V202.448H51.9059V202.568L44.12 241.384C44.0305 241.773 44.1796 242.012 44.5376 242.101H44.6569C44.9552 242.101 45.164 241.952 45.2535 241.623L46.9539 233.286H58.0212L59.7216 241.623C59.8111 241.952 59.9901 242.101 60.3182 242.101H60.4375V242.072ZM52.5323 205.676L57.7826 232.121H47.1926L52.5323 205.676ZM52.5323 220.557L50.7723 229.163H54.2327L52.5323 220.557Z" fill="white"/>
<path d="M87.1362 198.713C88.1207 198.713 88.9261 199.042 89.6122 199.699C90.2983 200.357 90.6265 201.193 90.6265 202.209C90.6265 203.225 90.2983 204.002 89.6122 204.69C88.9261 205.377 88.0908 205.706 87.1362 205.706H81.707V240.876C81.707 241.862 81.3788 242.699 80.6927 243.357C80.0066 244.014 79.1714 244.372 78.2168 244.372C77.2622 244.372 76.4269 244.044 75.7408 243.357C75.0547 242.669 74.7265 241.833 74.7265 240.876V205.706H69.178C68.1935 205.706 67.3881 205.377 66.702 204.69C66.0159 204.002 65.6877 203.166 65.6877 202.209C65.6877 201.253 66.0159 200.357 66.702 199.699C67.3881 199.042 68.2234 198.713 69.178 198.713H87.1959H87.1362ZM87.1362 202.807C87.524 202.807 87.7329 202.628 87.7329 202.209C87.7329 201.791 87.524 201.612 87.1362 201.612H69.1183C68.7305 201.612 68.5217 201.791 68.5217 202.209C68.5217 202.628 68.7305 202.807 69.1183 202.807H77.5903V240.906C77.5903 241.295 77.7991 241.504 78.1869 241.504C78.5747 241.504 78.7836 241.295 78.7836 240.906V202.807H87.1661H87.1362Z" fill="white"/>
<path d="M101.067 205.616V220.377H108.913C109.927 220.377 110.762 220.706 111.419 221.393C112.075 222.081 112.403 222.917 112.403 223.874C112.403 224.83 112.075 225.667 111.419 226.354C110.762 227.041 109.927 227.37 108.913 227.37H101.067V240.846C101.067 241.832 100.739 242.669 100.083 243.327C99.4267 243.984 98.5914 244.343 97.5771 244.343C96.5629 244.343 95.7873 244.014 95.1012 243.327C94.415 242.639 94.0869 241.803 94.0869 240.846V202.03C94.0869 201.044 94.415 200.237 95.1012 199.55C95.7873 198.863 96.6225 198.534 97.5771 198.534H112.254C113.238 198.534 114.044 198.863 114.73 199.55C115.416 200.237 115.744 201.074 115.744 202.03C115.744 202.986 115.416 203.883 114.73 204.54C114.044 205.198 113.209 205.526 112.254 205.526H101.067V205.616ZM98.1439 223.306V202.687H112.254C112.642 202.687 112.851 202.478 112.851 202.09C112.851 201.701 112.642 201.492 112.254 201.492H97.5771C97.1893 201.492 96.9805 201.701 96.9805 202.09V240.906C96.9805 241.295 97.1893 241.504 97.5771 241.504C97.9649 241.504 98.1738 241.295 98.1738 240.906V224.501H108.943C109.331 224.501 109.539 224.322 109.539 223.903C109.539 223.485 109.331 223.306 108.943 223.306H98.1738H98.1439Z" fill="white"/>
<path d="M141.846 237.44C142.861 237.44 143.696 237.769 144.352 238.456C145.008 239.143 145.337 239.98 145.337 240.936C145.337 241.892 145.008 242.729 144.352 243.416C143.696 244.103 142.861 244.432 141.846 244.432H126.573C125.588 244.432 124.783 244.103 124.097 243.416C123.411 242.729 123.083 241.892 123.083 240.936V202.12C123.083 201.134 123.411 200.327 124.097 199.64C124.783 198.952 125.618 198.624 126.573 198.624C127.527 198.624 128.363 198.952 129.049 199.64C129.735 200.327 130.063 201.163 130.063 202.12V237.41H141.817L141.846 237.44ZM141.846 241.534C142.234 241.534 142.443 241.324 142.443 240.936C142.443 240.548 142.234 240.338 141.846 240.338H127.169V202.12C127.169 201.731 126.961 201.522 126.573 201.522C126.185 201.522 125.976 201.731 125.976 202.12V240.936C125.976 241.324 126.155 241.534 126.573 241.534H141.846Z" fill="white"/>
<path d="M170.096 237.38C171.081 237.38 171.886 237.709 172.572 238.396C173.258 239.083 173.586 239.92 173.586 240.876C173.586 241.833 173.258 242.699 172.572 243.357C171.886 244.014 171.051 244.372 170.096 244.372H155.748C154.763 244.372 153.958 244.044 153.272 243.357C152.585 242.669 152.257 241.833 152.257 240.876V202.06C152.257 201.074 152.585 200.267 153.272 199.58C153.958 198.893 154.793 198.564 155.748 198.564H170.096C171.081 198.564 171.886 198.893 172.572 199.58C173.258 200.267 173.586 201.104 173.586 202.06C173.586 203.016 173.258 203.913 172.572 204.57C171.886 205.227 171.051 205.556 170.096 205.556H159.268V220.318H166.755C167.74 220.318 168.545 220.646 169.231 221.334C169.917 222.021 170.245 222.858 170.245 223.814C170.245 224.77 169.917 225.607 169.231 226.294C168.545 226.981 167.71 227.31 166.755 227.31H159.268V237.261H170.096V237.38ZM170.096 241.474C170.484 241.474 170.693 241.265 170.693 240.876C170.693 240.488 170.484 240.279 170.096 240.279H156.344V224.441H166.755C167.143 224.441 167.352 224.262 167.352 223.844C167.352 223.425 167.143 223.246 166.755 223.246H156.344V202.628H170.096C170.484 202.628 170.693 202.419 170.693 202.03C170.693 201.642 170.484 201.433 170.096 201.433H155.748C155.36 201.433 155.151 201.642 155.151 202.03V240.846C155.151 241.235 155.36 241.444 155.748 241.444H170.096V241.474Z" fill="white"/>
<path d="M201.479 239.681C201.837 240.577 201.807 241.474 201.419 242.37C201.031 243.267 200.375 243.894 199.48 244.253C199.122 244.402 198.704 244.492 198.197 244.492C197.481 244.492 196.855 244.283 196.258 243.864C195.661 243.446 195.214 242.908 194.916 242.191L190.59 230.806L186.205 242.191C185.937 242.908 185.489 243.446 184.892 243.864C184.296 244.283 183.64 244.492 182.924 244.492C182.446 244.492 182.059 244.402 181.701 244.253C180.806 243.894 180.149 243.267 179.732 242.37C179.314 241.474 179.284 240.577 179.642 239.681L185.728 223.844L186.832 221.035L180.209 203.853C179.851 202.956 179.881 202.06 180.269 201.193C180.656 200.327 181.313 199.699 182.208 199.341C183.103 198.982 183.998 199.012 184.892 199.401C185.787 199.789 186.414 200.446 186.772 201.343L190.56 211.234L194.379 201.343C194.737 200.446 195.333 199.789 196.228 199.401C197.093 199.012 197.988 198.982 198.883 199.341C199.778 199.699 200.434 200.297 200.852 201.193C201.27 202.09 201.3 202.956 200.942 203.853L194.319 221.035L195.423 223.844L201.449 239.681H201.479ZM198.436 241.504C198.824 241.354 198.943 241.085 198.794 240.757L192.708 224.919L191.246 221.065L198.197 202.837C198.316 202.538 198.197 202.299 197.839 202.12C197.481 201.97 197.243 202.06 197.064 202.419L190.56 219.421L183.998 202.419C183.848 202.06 183.58 201.97 183.222 202.12C182.924 202.239 182.804 202.478 182.924 202.837L189.874 221.065L188.413 224.919L182.327 240.757C182.178 241.145 182.297 241.414 182.685 241.504C182.715 241.534 182.774 241.564 182.864 241.564C183.103 241.564 183.282 241.414 183.461 241.145L189.486 225.368L190.531 222.678L191.515 225.368L197.6 241.145C197.72 241.414 197.899 241.564 198.137 241.564C198.257 241.564 198.346 241.564 198.376 241.504H198.436Z" fill="white"/>
</g>
<defs>
<clipPath id="clip0_11_348">
<rect width="203" height="245" fill="white"/>
</clipPath>
</defs>
</svg>
