<svg width="135" height="117" viewBox="0 0 135 117" fill="none" xmlns="http://www.w3.org/2000/svg">
<path d="M38.5843 11.9018C42.9288 11.7431 47.2931 11.7828 51.6574 11.8819C53.165 11.9216 53.899 11.5249 54.5933 10.0172C57.2913 4.1254 61.8143 0.296725 68.4599 0.217375C86.1154 -0.000840227 103.791 -0.0801911 121.466 0.0983483C130.473 0.197537 136.226 7.29944 134.777 15.6908C133.766 21.5231 128.985 25.5898 122.914 25.6096C108.492 25.6493 94.0704 25.6096 79.6484 25.6096C78.8945 25.6096 78.5771 25.6096 77.5654 25.6096C77.2083 25.6096 76.9306 25.9072 76.9504 26.2444C77.1488 30.827 76.7917 35.1714 77.1091 39.496C77.2282 41.0632 76.5735 41.7179 75.165 41.7575C73.1019 41.8369 71.019 41.7972 68.9558 41.8369C66.853 41.8766 66.0595 42.0749 66.0794 43.1462C66.0794 43.2057 66.0794 43.2652 66.0794 43.3247C66.0794 43.4437 66.0992 43.5628 66.119 43.6818C66.1786 43.9794 66.2579 44.3364 66.3968 44.753C66.4761 45.0109 66.7142 45.1895 66.9721 45.1895C81.9694 45.1895 96.8873 45.1895 111.805 45.1895C116.943 45.1895 121.109 47.1137 123.43 51.8549C125.791 56.6557 125.533 61.4564 122.557 65.9595C120.058 69.7684 116.308 71.2364 111.904 71.2562C101.113 71.2959 90.321 71.2959 79.5095 71.2959C78.7953 71.2959 78.0613 71.2959 77.1488 71.2959C76.8116 71.2959 76.5338 71.5736 76.5338 71.9109C76.5338 72.6845 76.5338 73.3788 76.5338 74.0533C76.5338 84.2499 76.5338 94.4663 76.514 104.663C76.514 111.804 73.6177 115.653 67.587 116.625C61.8738 117.557 55.8629 113.788 54.1569 107.797C53.4626 105.357 53.4229 102.758 53.1253 100.021C53.0857 99.6638 53.3634 99.3464 53.7403 99.3464H58.1046C58.422 99.3464 58.6997 99.6043 58.7196 99.9217C58.8981 103.492 58.1244 107.381 61.7547 109.96C62.1515 110.237 62.6871 109.979 62.7268 109.503C62.7665 108.908 62.8061 108.392 62.7863 107.896C62.6673 102.798 62.5086 97.7197 62.4094 92.6214C62.4094 91.9073 62.707 91.1931 62.7863 90.479C63.0839 88.0587 62.826 87.781 60.4058 87.781C53.3832 87.781 46.3607 87.8009 39.3381 87.7612C37.9892 87.7612 35.8467 88.396 35.8269 86.2337C35.807 84.0515 37.9495 84.6863 39.2985 84.6863C46.1821 84.6467 53.046 84.6863 59.9297 84.6863C60.624 84.6863 61.3382 84.6863 62.1515 84.6863C62.4887 84.6863 62.7665 84.4086 62.7665 84.0714C62.7665 81.552 62.7665 79.2508 62.7665 76.9496C62.7665 65.9397 62.707 54.9099 62.7665 43.9C62.7665 42.194 62.1912 41.7972 60.6042 41.7972C49.138 41.7972 37.6916 41.7179 26.2254 41.6583C25.8485 41.6583 25.4914 41.6782 25.1145 41.6583C23.8449 41.579 22.0595 41.9559 22.119 39.992C22.1587 38.2463 23.825 38.4843 25.055 38.4843C35.4896 38.4446 45.9044 38.4248 56.3391 38.405C58.2038 38.405 60.0487 38.405 62.0126 38.405C62.3499 38.405 62.6276 38.1272 62.6276 37.79V35.3698C62.6276 35.0326 62.3499 34.7548 62.0126 34.7548C60.8819 34.7548 59.7908 34.7548 58.6799 34.7548C52.0343 34.7548 45.3688 34.7747 38.7232 34.7945C38.0487 34.7945 37.3147 34.9532 36.7592 34.7151C36.1046 34.4374 36.2633 31.8784 36.8981 31.8387C40.449 31.6998 44 31.7792 47.5509 31.7395C49.376 31.7395 51.8557 32.2949 52.8675 31.3427C53.8395 30.45 53.284 27.9108 53.4031 26.1056C53.4031 25.8874 53.4427 25.6692 53.4824 25.4113C53.5221 25.1137 53.78 24.8955 54.0776 24.8955H58.1244C58.4617 24.8955 58.7394 25.1732 58.7394 25.5105V30.8666C58.7394 31.2039 59.0171 31.4816 59.3544 31.4816H62.1317C62.4689 31.4816 62.7466 31.2039 62.7466 30.8666C62.7466 27.1768 62.707 23.5465 62.7466 19.9361C62.8061 15.4527 64.8296 12.6159 68.6583 11.6439C69.5708 11.4058 70.5627 11.4257 71.5149 11.4257C88.5952 11.4257 105.675 11.4257 122.756 11.386C124.244 11.386 126.446 12.0208 126.406 9.46175C126.366 7.14074 124.283 7.65652 122.815 7.61684C120.117 7.55733 117.419 7.597 115.019 7.597C114.761 7.597 114.523 7.77554 114.444 8.01359C114.126 8.98564 113.928 9.73947 113.571 10.3941C113.472 10.5925 112.341 10.5528 112.222 10.3346C111.904 9.71964 111.766 9.02532 111.528 8.11278C111.468 7.85489 111.25 7.67635 110.972 7.65652C110.476 7.61684 109.822 7.57716 109.167 7.57716C96.0145 7.53749 82.8422 7.51765 69.6898 7.49781C62.2904 7.49781 58.8188 10.9297 58.7989 18.3292C58.7989 19.0235 58.7989 19.7178 58.7989 20.4717C58.7989 20.8089 58.5212 21.0866 58.184 21.0866H53.9784C53.6411 21.0866 53.3634 20.8089 53.3634 20.4717V15.5718C53.3634 15.2345 53.0857 14.9568 52.7484 14.9568C48.4833 14.9568 42.5915 14.937 38.743 14.9965M77.1488 52.5492C76.8116 52.5492 76.5338 52.827 76.5338 53.1642C76.5338 56.616 76.5537 59.7305 76.5338 62.8649C76.5338 64.194 77.367 64.194 78.2994 64.194C83.7746 64.194 89.23 64.194 94.7052 64.1345C95.3598 64.1345 96.1732 63.6584 96.5898 63.1426C97.6412 61.8333 98.3752 61.7936 99.2083 63.3211C99.4266 63.7179 100.061 64.1146 100.518 64.1345C104.941 64.194 109.385 64.194 113.809 64.1345C115.198 64.1146 116.566 63.7377 116.467 61.8928C116.368 60.0677 114.979 60.1471 113.71 60.1471C107.203 60.1471 100.716 60.1471 94.2092 60.1471C90.5194 60.1471 86.8296 60.1868 83.12 60.1471C81.1759 60.1273 80.0253 58.7981 80.918 57.6475C81.3941 57.0524 82.5248 56.6953 83.3778 56.6953C91.432 56.6358 99.4861 56.6755 107.54 56.6755C109.822 56.6755 112.143 56.8144 114.404 56.5763C115.158 56.497 116.388 55.4852 116.388 54.8901C116.388 54.1561 115.455 53.2436 114.702 52.7476C114.166 52.3905 113.273 52.5691 112.539 52.5691C101.966 52.5691 91.4121 52.5691 80.8386 52.5889C79.688 52.5889 78.5374 52.5889 77.1488 52.5889V52.5492ZM108.631 18.0316C108.631 18.0316 108.671 17.8928 108.691 17.8333C109.048 16.4446 111.032 16.4843 111.329 17.8928C111.329 17.8928 111.329 17.9126 111.329 17.9324C111.389 18.2102 111.627 18.4284 111.924 18.4284C115.932 18.4284 120.038 18.4284 124.164 18.4284C125.374 18.4284 126.465 18.111 126.465 16.643C126.465 15.0163 125.295 14.7981 124.005 14.7981C106.409 14.7981 88.8332 14.7981 71.2372 14.7981C67.9243 14.7981 66.1984 16.5835 66.1587 19.9162C66.0992 25.4509 66.1984 31.0055 66.1587 36.5402C66.1587 38.0479 66.734 38.405 68.1227 38.405C69.5906 38.405 70.2453 38.0479 70.2056 36.4212C70.1064 31.6998 70.1263 26.9586 70.1659 22.2372C70.1858 19.4401 71.138 18.5474 73.9549 18.5276C78.2399 18.4879 82.5248 18.5077 86.8098 18.5077C93.9513 18.5077 101.113 18.5077 108.056 18.5077C108.334 18.5077 108.572 18.3292 108.651 18.0515L108.631 18.0316ZM66.2976 49.1768V110.872C66.2976 111.269 66.6745 111.566 67.0713 111.467C68.6583 111.051 69.5708 110.059 69.908 108.551C70.1858 107.341 70.2254 106.071 70.2254 104.822C70.2254 87.2454 70.2056 69.6692 70.1461 52.093C70.1461 48.6015 70.8007 48.7999 66.9522 48.5619C66.5951 48.542 66.2976 48.8198 66.2976 49.1768Z" fill="url(#paint0_linear_231_119)"/>
<path d="M58.7791 65.523C58.7791 70.6213 58.8187 75.6403 58.7195 80.6592C58.7195 81.0956 57.9062 81.909 57.4499 81.909C53.2443 81.9685 49.0189 81.9883 44.8133 81.8098C44.1388 81.79 44.1587 78.7151 44.8728 78.6556C47.5906 78.4771 50.3084 78.5763 53.2443 78.5763V65.523H58.7791Z" fill="url(#paint1_linear_231_119)"/>
<path d="M58.66 54.6718H53.3634C53.3634 53.0451 53.3039 51.5176 53.3634 49.9901C53.4427 48.5419 52.6889 48.2642 51.4589 48.284C49.2371 48.3435 47.0153 48.403 44.8133 48.2245C44.1587 48.165 44.1587 45.3679 44.7935 45.348C49.3562 45.229 53.9188 45.2885 58.6402 45.2885V54.6916L58.66 54.6718Z" fill="url(#paint2_linear_231_119)"/>
<path d="M49.1578 24.7368C49.5546 28.1291 49.4752 28.1687 46.9558 28.1886C43.6628 28.2084 40.3697 28.4068 37.0767 28.2878C36.3625 28.2679 36.1641 24.836 36.7989 24.8162C40.8855 24.6575 44.9919 24.7368 49.1777 24.7368H49.1578Z" fill="url(#paint3_linear_231_119)"/>
<path d="M58.6997 58.4609V61.3771H53.5618V58.4609H58.6997Z" fill="url(#paint4_linear_231_119)"/>
<path d="M62.4292 92.5422V87.9993L63.2227 88.0985L63.0838 92.2049" fill="url(#paint5_linear_231_119)"/>
<path d="M35.569 15.5121C36.6975 15.5121 37.6123 14.5973 37.6123 13.4689C37.6123 12.3404 36.6975 11.4256 35.569 11.4256C34.4406 11.4256 33.5258 12.3404 33.5258 13.4689C33.5258 14.5973 34.4406 15.5121 35.569 15.5121Z" fill="url(#paint6_linear_231_119)"/>
<path d="M17.5563 42.1344C18.6848 42.1344 19.5996 41.2196 19.5996 40.0911C19.5996 38.9627 18.6848 38.0479 17.5563 38.0479C16.4279 38.0479 15.5131 38.9627 15.5131 40.0911C15.5131 41.2196 16.4279 42.1344 17.5563 42.1344Z" fill="url(#paint7_linear_231_119)"/>
<path d="M12.7358 42.1344C13.8643 42.1344 14.7791 41.2196 14.7791 40.0911C14.7791 38.9627 13.8643 38.0479 12.7358 38.0479C11.6073 38.0479 10.6925 38.9627 10.6925 40.0911C10.6925 41.2196 11.6073 42.1344 12.7358 42.1344Z" fill="url(#paint8_linear_231_119)"/>
<path d="M32.1966 28.248C33.3251 28.248 34.2399 27.3332 34.2399 26.2048C34.2399 25.0763 33.3251 24.1615 32.1966 24.1615C31.0681 24.1615 30.1533 25.0763 30.1533 26.2048C30.1533 27.3332 31.0681 28.248 32.1966 28.248Z" fill="url(#paint9_linear_231_119)"/>
<path d="M49.4554 61.8927C50.5839 61.8927 51.4987 60.9779 51.4987 59.8494C51.4987 58.7209 50.5839 57.8061 49.4554 57.8061C48.3269 57.8061 47.4121 58.7209 47.4121 59.8494C47.4121 60.9779 48.3269 61.8927 49.4554 61.8927Z" fill="url(#paint10_linear_231_119)"/>
<path d="M40.826 82.0876C41.9545 82.0876 42.8693 81.1728 42.8693 80.0443C42.8693 78.9158 41.9545 78.001 40.826 78.001C39.6975 78.001 38.7827 78.9158 38.7827 80.0443C38.7827 81.1728 39.6975 82.0876 40.826 82.0876Z" fill="url(#paint11_linear_231_119)"/>
<path d="M22.3968 95.2599C23.5253 95.2599 24.4401 94.3451 24.4401 93.2166C24.4401 92.0881 23.5253 91.1733 22.3968 91.1733C21.2683 91.1733 20.3535 92.0881 20.3535 93.2166C20.3535 94.3451 21.2683 95.2599 22.3968 95.2599Z" fill="url(#paint12_linear_231_119)"/>
<path d="M2.04328 61.8927C3.17176 61.8927 4.08657 60.9779 4.08657 59.8494C4.08657 58.7209 3.17176 57.8061 2.04328 57.8061C0.914809 57.8061 0 58.7209 0 59.8494C0 60.9779 0.914809 61.8927 2.04328 61.8927Z" fill="url(#paint13_linear_231_119)"/>
<path d="M55.9027 98.3346C57.0311 98.3346 57.9459 97.4198 57.9459 96.2913C57.9459 95.1628 57.0311 94.248 55.9027 94.248C54.7742 94.248 53.8594 95.1628 53.8594 96.2913C53.8594 97.4198 54.7742 98.3346 55.9027 98.3346Z" fill="url(#paint14_linear_231_119)"/>
<path d="M50.7845 98.3346C51.913 98.3346 52.8278 97.4198 52.8278 96.2913C52.8278 95.1628 51.913 94.248 50.7845 94.248C49.656 94.248 48.7412 95.1628 48.7412 96.2913C48.7412 97.4198 49.656 98.3346 50.7845 98.3346Z" fill="url(#paint15_linear_231_119)"/>
<path d="M40.826 48.8793C41.9545 48.8793 42.8693 47.9645 42.8693 46.836C42.8693 45.7075 41.9545 44.7927 40.826 44.7927C39.6975 44.7927 38.7827 45.7075 38.7827 46.836C38.7827 47.9645 39.6975 48.8793 40.826 48.8793Z" fill="url(#paint16_linear_231_119)"/>
<path d="M44.4959 61.8927C45.6244 61.8927 46.5392 60.9779 46.5392 59.8494C46.5392 58.7209 45.6244 57.8061 44.4959 57.8061C43.3674 57.8061 42.4526 58.7209 42.4526 59.8494C42.4526 60.9779 43.3674 61.8927 44.4959 61.8927Z" fill="url(#paint17_linear_231_119)"/>
<path d="M49.1182 99.3663H19.5402C18.5322 99.3663 17.7151 100.183 17.7151 101.191C17.7151 102.199 18.5322 103.016 19.5402 103.016H49.1182C50.1261 103.016 50.9432 102.199 50.9432 101.191C50.9432 100.183 50.1261 99.3663 49.1182 99.3663Z" fill="url(#paint18_linear_231_119)"/>
<path d="M40.6078 91.3121H27.5745C26.5665 91.3121 25.7494 92.1292 25.7494 93.1371C25.7494 94.1451 26.5665 94.9622 27.5745 94.9622H40.6078C41.6158 94.9622 42.4329 94.1451 42.4329 93.1371C42.4329 92.1292 41.6158 91.3121 40.6078 91.3121Z" fill="url(#paint19_linear_231_119)"/>
<path d="M30.8873 73.0219C32.0158 73.0219 32.9306 72.1071 32.9306 70.9786C32.9306 69.8501 32.0158 68.9353 30.8873 68.9353C29.7588 68.9353 28.844 69.8501 28.844 70.9786C28.844 72.1071 29.7588 73.0219 30.8873 73.0219Z" fill="url(#paint20_linear_231_119)"/>
<path d="M49.0983 69.0741H36.0649C35.057 69.0741 34.2399 69.8912 34.2399 70.8991C34.2399 71.9071 35.057 72.7242 36.0649 72.7242H49.0983C50.1063 72.7242 50.9234 71.9071 50.9234 70.8991C50.9234 69.8912 50.1063 69.0741 49.0983 69.0741Z" fill="url(#paint21_linear_231_119)"/>
<path d="M37.5527 57.8061H7.97473C6.96677 57.8061 6.14966 58.6232 6.14966 59.6312C6.14966 60.6392 6.96677 61.4563 7.97473 61.4563H37.5527C38.5607 61.4563 39.3778 60.6392 39.3778 59.6312C39.3778 58.6232 38.5607 57.8061 37.5527 57.8061Z" fill="url(#paint22_linear_231_119)"/>
<defs>
<linearGradient id="paint0_linear_231_119" x1="129.024" y1="-8.31284" x2="0.7538" y2="117.319" gradientUnits="userSpaceOnUse">
<stop stop-color="#EEFCD3"/>
<stop offset="1" stop-color="#239D94"/>
</linearGradient>
<linearGradient id="paint1_linear_231_119" x1="134.043" y1="-3.17497" x2="5.79249" y2="122.437" gradientUnits="userSpaceOnUse">
<stop stop-color="#EEFCD3"/>
<stop offset="1" stop-color="#239D94"/>
</linearGradient>
<linearGradient id="paint2_linear_231_119" x1="120.316" y1="-17.2002" x2="-7.95497" y2="108.412" gradientUnits="userSpaceOnUse">
<stop stop-color="#EEFCD3"/>
<stop offset="1" stop-color="#239D94"/>
</linearGradient>
<linearGradient id="paint3_linear_231_119" x1="104.168" y1="-33.6852" x2="-24.083" y2="91.9272" gradientUnits="userSpaceOnUse">
<stop stop-color="#EEFCD3"/>
<stop offset="1" stop-color="#239D94"/>
</linearGradient>
<linearGradient id="paint4_linear_231_119" x1="127.437" y1="-9.9197" x2="-0.83333" y2="115.693" gradientUnits="userSpaceOnUse">
<stop stop-color="#EEFCD3"/>
<stop offset="1" stop-color="#239D94"/>
</linearGradient>
<linearGradient id="paint5_linear_231_119" x1="145.768" y1="8.80717" x2="17.5169" y2="134.42" gradientUnits="userSpaceOnUse">
<stop stop-color="#EEFCD3"/>
<stop offset="1" stop-color="#239D94"/>
</linearGradient>
<linearGradient id="paint6_linear_231_119" x1="94.1498" y1="-43.9216" x2="-34.1208" y2="81.7105" gradientUnits="userSpaceOnUse">
<stop stop-color="#EEFCD3"/>
<stop offset="1" stop-color="#239D94"/>
</linearGradient>
<linearGradient id="paint7_linear_231_119" x1="98.6529" y1="-39.3192" x2="-29.6177" y2="86.2932" gradientUnits="userSpaceOnUse">
<stop stop-color="#EEFCD3"/>
<stop offset="1" stop-color="#239D94"/>
</linearGradient>
<linearGradient id="paint8_linear_231_119" x1="96.2922" y1="-41.7394" x2="-31.9784" y2="83.8928" gradientUnits="userSpaceOnUse">
<stop stop-color="#EEFCD3"/>
<stop offset="1" stop-color="#239D94"/>
</linearGradient>
<linearGradient id="paint9_linear_231_119" x1="98.8712" y1="-39.101" x2="-29.3994" y2="86.5114" gradientUnits="userSpaceOnUse">
<stop stop-color="#EEFCD3"/>
<stop offset="1" stop-color="#239D94"/>
</linearGradient>
<linearGradient id="paint10_linear_231_119" x1="124.144" y1="-13.2923" x2="-4.12636" y2="112.34" gradientUnits="userSpaceOnUse">
<stop stop-color="#EEFCD3"/>
<stop offset="1" stop-color="#239D94"/>
</linearGradient>
<linearGradient id="paint11_linear_231_119" x1="130.016" y1="-7.30117" x2="1.74568" y2="118.331" gradientUnits="userSpaceOnUse">
<stop stop-color="#EEFCD3"/>
<stop offset="1" stop-color="#239D94"/>
</linearGradient>
<linearGradient id="paint12_linear_231_119" x1="127.576" y1="-9.78086" x2="-0.694407" y2="115.831" gradientUnits="userSpaceOnUse">
<stop stop-color="#EEFCD3"/>
<stop offset="1" stop-color="#239D94"/>
</linearGradient>
<linearGradient id="paint13_linear_231_119" x1="100.934" y1="-36.9785" x2="-27.3365" y2="88.6339" gradientUnits="userSpaceOnUse">
<stop stop-color="#EEFCD3"/>
<stop offset="1" stop-color="#239D94"/>
</linearGradient>
<linearGradient id="paint14_linear_231_119" x1="145.51" y1="8.52922" x2="17.2587" y2="134.142" gradientUnits="userSpaceOnUse">
<stop stop-color="#EEFCD3"/>
<stop offset="1" stop-color="#239D94"/>
</linearGradient>
<linearGradient id="paint15_linear_231_119" x1="143.01" y1="5.97013" x2="14.7393" y2="131.582" gradientUnits="userSpaceOnUse">
<stop stop-color="#EEFCD3"/>
<stop offset="1" stop-color="#239D94"/>
</linearGradient>
<linearGradient id="paint16_linear_231_119" x1="113.412" y1="-24.2425" x2="-14.8584" y2="101.37" gradientUnits="userSpaceOnUse">
<stop stop-color="#EEFCD3"/>
<stop offset="1" stop-color="#239D94"/>
</linearGradient>
<linearGradient id="paint17_linear_231_119" x1="121.704" y1="-15.772" x2="-6.54661" y2="109.84" gradientUnits="userSpaceOnUse">
<stop stop-color="#EEFCD3"/>
<stop offset="1" stop-color="#239D94"/>
</linearGradient>
<linearGradient id="paint18_linear_231_119" x1="137.396" y1="0.237249" x2="9.12534" y2="125.869" gradientUnits="userSpaceOnUse">
<stop stop-color="#EEFCD3"/>
<stop offset="1" stop-color="#239D94"/>
</linearGradient>
<linearGradient id="paint19_linear_231_119" x1="133.27" y1="-3.96846" x2="4.99913" y2="121.644" gradientUnits="userSpaceOnUse">
<stop stop-color="#EEFCD3"/>
<stop offset="1" stop-color="#239D94"/>
</linearGradient>
<linearGradient id="paint20_linear_231_119" x1="120.613" y1="-16.9025" x2="-7.65746" y2="108.71" gradientUnits="userSpaceOnUse">
<stop stop-color="#EEFCD3"/>
<stop offset="1" stop-color="#239D94"/>
</linearGradient>
<linearGradient id="paint21_linear_231_119" x1="126.307" y1="-11.0901" x2="-1.96397" y2="114.542" gradientUnits="userSpaceOnUse">
<stop stop-color="#EEFCD3"/>
<stop offset="1" stop-color="#239D94"/>
</linearGradient>
<linearGradient id="paint22_linear_231_119" x1="110.952" y1="-26.7422" x2="-17.2985" y2="98.8702" gradientUnits="userSpaceOnUse">
<stop stop-color="#EEFCD3"/>
<stop offset="1" stop-color="#239D94"/>
</linearGradient>
</defs>
</svg>
